<svg xmlns="http://www.w3.org/2000/svg" viewBox="0 0 64 64" role="img" aria-label="ReadAssist-SNED favicon">
  <rect width="64" height="64" rx="14" fill="#1d4ed8"/>
  <path d="M15 18c6 0 11 1.7 17 5.1V49c-5.4-3.2-10.8-4.8-17-4.8V18Z" fill="#eff6ff"/>
  <path d="M49 18c-6 0-11 1.7-17 5.1V49c5.4-3.2 10.8-4.8 17-4.8V18Z" fill="#dbeafe"/>
  <path d="M32 23.1V49" stroke="#1e40af" stroke-width="2.4" stroke-linecap="round"/>
  <path d="M20 25.5c3.3.4 5.9 1.2 8 2.4M20 32c3.1.4 5.7 1.2 8 2.4" stroke="#60a5fa" stroke-width="2.4" stroke-linecap="round"/>
  <path d="M44 25.5c-3.3.4-5.9 1.2-8 2.4M44 32c-3.1.4-5.7 1.2-8 2.4" stroke="#60a5fa" stroke-width="2.4" stroke-linecap="round"/>
  <circle cx="46" cy="45" r="10" fill="#16a34a"/>
  <path d="m41.8 45.1 2.9 2.9 5.8-6.2" fill="none" stroke="#ffffff" stroke-width="3.8" stroke-linecap="round" stroke-linejoin="round"/>
</svg>
